# xmcd
#
# Track frame offsets:
#	150
#	12905
#	28062
#	41920
#	52955
#	67740
#	89282
#	106225
#	126582
#	139665
#	153677
#	168335
#	183907
#	197315
#	218182
#	234530
#
# Disc length: 3320 seconds
#
# Revision: 1
# Processed by: cddbd v1.5.1PL0 Copyright (c) Steve Scherf et al.
# Submitted via: CDex 1.50Beta5
#
DISCID=d70cf610
DTITLE=ドリーミング - それいけ!アンパンマン 人魚姫のなみだ
DYEAR=2000
DGENRE=
TTITLE0=ドリーミング/アンパンマンのマーチ
TTITLE1=南果歩/夕日にむかって
TTITLE2=戸田恵子/勇気のルンダ
TTITLE3=かないみか/パンナのパンチ
TTITLE4=長沢美樹/ぼくはクリームパンダ
TTITLE5=冨永みーな/ふたつの心
TTITLE6=戸田恵子/アンパンマン音頭’99
TTITLE7=ドリーミング/勇気の花がひらくとき
TTITLE8=ドリーミング/勇気りんりん
TTITLE9=小杉十郎太/やきそばパンマン流れ旅
TTITLE10=ドリーミング/走れ!SLマン
TTITLE11=島本須美/おなじみしょくぱんまん
TTITLE12=中尾隆聖/まわれうずまき
TTITLE13=小夏/てのひらを太陽に
TTITLE14=アンパンマンとなかまたち/すすめ!アンパンマン号
TTITLE15=ドリーミング/サンサン たいそう
EXTD=
EXTT0=
EXTT1=
EXTT2=
EXTT3=
EXTT4=
EXTT5=
EXTT6=
EXTT7=
EXTT8=
EXTT9=
EXTT10=
EXTT11=
EXTT12=
EXTT13=
EXTT14=
EXTT15=
PLAYORDER=
